<?xml version="1.0" encoding="utf-8"?>
<!-- Generator: Adobe Illustrator 17.0.2, SVG Export Plug-In . SVG Version: 6.00 Build 0)  -->
<!DOCTYPE svg PUBLIC "-//W3C//DTD SVG 1.1//EN" "http://www.w3.org/Graphics/SVG/1.1/DTD/svg11.dtd">
<svg version="1.1" id="Layer_1" xmlns="http://www.w3.org/2000/svg" xmlns:xlink="http://www.w3.org/1999/xlink" x="0px" y="0px"
	 width="105.945px" height="157.869px" viewBox="0 0 105.945 157.869" enable-background="new 0 0 105.945 157.869"
	 xml:space="preserve">
<g id="AZ">
	<polygon fill="#D3D3D3" points="2.425,87.914 0.12,90.413 0,91.899 0.614,92.793 20.816,100.76 33.871,106.618 49.62,113.08 
		67.651,120.696 80.155,121.407 105.241,120.654 105.945,0.286 21.367,0 20.561,16.682 18.972,16.918 17.635,19.758 15.129,19.991 
		13.506,17.447 10.742,17.485 9.678,16.478 8.773,16.604 7.945,17.296 6.162,18.582 7.009,25.505 7.018,27.235 8.181,39.768 
		7.008,42.124 6.898,45.486 10.291,49.977 12.339,55.578 13.273,56.487 14.371,56.911 14.572,59.192 13.175,60.77 10.015,62.941 
		8.357,65.133 7.388,68.96 7.499,73.908 5.045,77.018 3.101,77.981 3.35,78.784 3.133,80.546 3.696,81.275 7.398,81.338 
		7.208,84.134 6.035,86.49 	"/>
</g>
<g>
	<path d="M9.021,150.299l1.254-0.094l6.059-15.938h1.324l6,15.938l1.277,0.094v1.031h-4.207v-1.031l1.488-0.117l-1.406-3.82h-7.664
		l-1.418,3.82l1.488,0.117v1.031H9.021V150.299z M13.615,145.107h6.738l-3.316-9.023h-0.07L13.615,145.107z"/>
	<path d="M29.951,138.65l0.176,2.109v0.152c0.359-0.781,0.85-1.393,1.471-1.834s1.357-0.662,2.209-0.662
		c0.18,0,0.354,0.014,0.521,0.041s0.307,0.057,0.416,0.088l-0.188,1.312l-1.043-0.07c-0.883,0-1.607,0.248-2.174,0.744
		s-0.971,1.178-1.213,2.045v7.57l1.91,0.152v1.031h-5.215v-1.031l1.91-0.152v-10.301l-1.91-0.152v-1.043h1.91H29.951z"/>
	<path d="M36.467,150.299l1.91-0.152v-10.301l-1.91-0.152v-1.043h3.305v11.496l1.91,0.152v1.031h-5.215V150.299z M39.771,135.018
		h-1.395v-1.969h1.395V135.018z"/>
	<path d="M45.982,150.146h6.891l0.105-2.402h1.254v3.586h-9.973v-1.031l7.641-10.441h-6.258l-0.094,2.391h-1.254v-3.598h9.375v1.043
		L45.982,150.146z"/>
	<path d="M56.506,144.803c0-1.867,0.512-3.398,1.535-4.594s2.379-1.793,4.066-1.793c1.695,0,3.055,0.598,4.078,1.793
		s1.535,2.727,1.535,4.594v0.387c0,1.875-0.51,3.408-1.529,4.6s-2.373,1.787-4.061,1.787c-1.703,0-3.066-0.596-4.09-1.787
		s-1.535-2.725-1.535-4.6V144.803z M57.912,145.189c0,1.469,0.371,2.703,1.113,3.703s1.777,1.5,3.105,1.5
		c1.305,0,2.328-0.5,3.07-1.5s1.113-2.234,1.113-3.703v-0.387c0-1.445-0.373-2.672-1.119-3.68s-1.775-1.512-3.088-1.512
		s-2.34,0.504-3.082,1.512s-1.113,2.234-1.113,3.68V145.189z"/>
	<path d="M69.748,150.299l1.91-0.152v-10.301l-1.91-0.152v-1.043H72.9l0.129,2.215c0.406-0.781,0.955-1.385,1.646-1.811
		s1.51-0.639,2.455-0.639c1.375,0,2.422,0.42,3.141,1.26s1.078,2.15,1.078,3.932v6.539l1.91,0.152v1.031h-5.227v-1.031l1.91-0.152
		v-6.527c0-1.453-0.271-2.48-0.814-3.082s-1.314-0.902-2.314-0.902c-0.984,0-1.787,0.26-2.408,0.779s-1.068,1.209-1.342,2.068v7.664
		l1.91,0.152v1.031h-5.227V150.299z"/>
	<path d="M94.217,151.33c-0.094-0.43-0.16-0.801-0.199-1.113s-0.059-0.629-0.059-0.949c-0.469,0.664-1.094,1.215-1.875,1.652
		s-1.66,0.656-2.637,0.656c-1.242,0-2.203-0.32-2.883-0.961s-1.02-1.508-1.02-2.602c0-1.172,0.504-2.102,1.512-2.789
		s2.375-1.031,4.102-1.031h2.801v-1.676c0-0.906-0.291-1.617-0.873-2.133s-1.396-0.773-2.443-0.773
		c-0.703,0-1.346,0.096-1.928,0.287s-1.068,0.451-1.459,0.779l-0.117,1.699h-1.16l0.012-2.438c0.586-0.453,1.287-0.82,2.104-1.102
		s1.686-0.422,2.607-0.422c1.398,0,2.523,0.355,3.375,1.066s1.277,1.73,1.277,3.059v6.234c0,0.258,0.006,0.506,0.018,0.744
		s0.037,0.471,0.076,0.697l1.266,0.082v1.031H94.217z M89.599,150.334c1.016,0,1.91-0.234,2.684-0.703s1.332-1.074,1.676-1.816
		v-2.543h-2.824c-1.273,0-2.291,0.264-3.053,0.791s-1.143,1.193-1.143,1.998c0,0.68,0.236,1.229,0.709,1.646
		S88.771,150.334,89.599,150.334z"/>
</g>
<g>
</g>
<g>
</g>
<g>
</g>
<g>
</g>
<g>
</g>
<g>
</g>
<g>
</g>
<g>
</g>
<g>
</g>
<g>
</g>
<g>
</g>
<g>
</g>
<g>
</g>
<g>
</g>
<g>
</g>
</svg>
