<?xml version="1.0" encoding="utf-8"?>
<!-- Generator: Adobe Illustrator 17.0.2, SVG Export Plug-In . SVG Version: 6.00 Build 0)  -->
<!DOCTYPE svg PUBLIC "-//W3C//DTD SVG 1.1//EN" "http://www.w3.org/Graphics/SVG/1.1/DTD/svg11.dtd">
<svg version="1.1" id="Layer_1" xmlns="http://www.w3.org/2000/svg" xmlns:xlink="http://www.w3.org/1999/xlink" x="0px" y="0px"
	 width="105.945px" height="157.869px" viewBox="0 0 105.945 157.869" enable-background="new 0 0 105.945 157.869"
	 xml:space="preserve">
<g>
	<path d="M31.819,134.268v1.043l-1.91,0.152v10.371c0,1.453,0.43,2.576,1.289,3.369s1.98,1.189,3.363,1.189
		c1.406,0,2.551-0.395,3.434-1.184s1.324-1.914,1.324-3.375v-10.371l-1.91-0.152v-1.043h5.215v1.043l-1.91,0.152v10.371
		c0,1.859-0.568,3.281-1.705,4.266s-2.619,1.477-4.447,1.477c-1.797,0-3.254-0.494-4.371-1.482s-1.676-2.408-1.676-4.26v-10.371
		l-1.91-0.152v-1.043h1.91h1.395H31.819z"/>
	<path d="M47.686,135.404v3.246h2.789v1.148h-2.789v8.262c0,0.828,0.15,1.416,0.451,1.764s0.701,0.521,1.201,0.521
		c0.227,0,0.447-0.01,0.662-0.029s0.463-0.053,0.744-0.1l0.211,1.043c-0.234,0.102-0.52,0.18-0.855,0.234s-0.672,0.082-1.008,0.082
		c-0.891,0-1.584-0.281-2.08-0.844s-0.744-1.453-0.744-2.672v-8.262h-2.18v-1.148h2.18v-3.246H47.686z"/>
	<path d="M61.807,151.33c-0.094-0.43-0.16-0.801-0.199-1.113s-0.059-0.629-0.059-0.949c-0.469,0.664-1.094,1.215-1.875,1.652
		s-1.66,0.656-2.637,0.656c-1.242,0-2.203-0.32-2.883-0.961s-1.02-1.508-1.02-2.602c0-1.172,0.504-2.102,1.512-2.789
		s2.375-1.031,4.102-1.031h2.801v-1.676c0-0.906-0.291-1.617-0.873-2.133s-1.396-0.773-2.443-0.773
		c-0.703,0-1.346,0.096-1.928,0.287s-1.068,0.451-1.459,0.779l-0.117,1.699h-1.16l0.012-2.438c0.586-0.453,1.287-0.82,2.104-1.102
		s1.686-0.422,2.607-0.422c1.398,0,2.523,0.355,3.375,1.066s1.277,1.73,1.277,3.059v6.234c0,0.258,0.006,0.506,0.018,0.744
		s0.037,0.471,0.076,0.697l1.266,0.082v1.031H61.807z M57.19,150.334c1.016,0,1.91-0.234,2.684-0.703s1.332-1.074,1.676-1.816
		v-2.543h-2.824c-1.273,0-2.291,0.264-3.053,0.791s-1.143,1.193-1.143,1.998c0,0.68,0.236,1.229,0.709,1.646
		S56.362,150.334,57.19,150.334z"/>
	<path d="M65.885,134.092v-1.043h3.305v7.77c0.422-0.758,0.984-1.348,1.688-1.77s1.523-0.633,2.461-0.633
		c1.336,0,2.361,0.414,3.076,1.242s1.072,2.113,1.072,3.855v6.633l1.91,0.152v1.031h-5.227v-1.031l1.91-0.152v-6.656
		c0-1.375-0.271-2.361-0.814-2.959s-1.291-0.896-2.244-0.896c-0.961,0-1.764,0.252-2.408,0.756s-1.119,1.174-1.424,2.01v7.746
		l1.91,0.152v1.031h-5.215v-1.031l1.91-0.152v-15.902L65.885,134.092z"/>
</g>
<g id="UT">
	<polygon fill="#D3D3D3" points="95.429,120.875 10.843,120.656 15.728,6.351 63.266,8.567 63.26,19.301 62.786,32.667 
		70.648,32.51 87.146,32.037 95.397,31.753 	"/>
</g>
<g>
</g>
<g>
</g>
<g>
</g>
<g>
</g>
<g>
</g>
<g>
</g>
<g>
</g>
<g>
</g>
<g>
</g>
<g>
</g>
<g>
</g>
<g>
</g>
<g>
</g>
<g>
</g>
<g>
</g>
</svg>
