<?xml version="1.0" encoding="utf-8"?>
<!-- Generator: Adobe Illustrator 17.0.2, SVG Export Plug-In . SVG Version: 6.00 Build 0)  -->
<!DOCTYPE svg PUBLIC "-//W3C//DTD SVG 1.1//EN" "http://www.w3.org/Graphics/SVG/1.1/DTD/svg11.dtd">
<svg version="1.1" id="Layer_1" xmlns="http://www.w3.org/2000/svg" xmlns:xlink="http://www.w3.org/1999/xlink" x="0px" y="0px"
	 width="111.492px" height="155.075px" viewBox="0 0 111.492 155.075" enable-background="new 0 0 111.492 155.075"
	 xml:space="preserve">
<g>
	<path d="M14.414,136.818h-1.09l-0.199-2.59c-0.453-0.539-1.043-0.975-1.77-1.307s-1.566-0.498-2.52-0.498
		c-1.906,0-3.422,0.693-4.547,2.08s-1.688,3.178-1.688,5.373v0.246c0,2.195,0.557,3.99,1.67,5.385s2.576,2.092,4.389,2.092
		c0.961,0,1.834-0.168,2.619-0.504s1.4-0.77,1.846-1.301l0.199-2.59h1.09v3c-0.531,0.734-1.307,1.348-2.326,1.84
		s-2.162,0.738-3.428,0.738c-2.188,0-3.977-0.811-5.367-2.432s-2.086-3.697-2.086-6.229V139.9c0-2.539,0.693-4.619,2.08-6.24
		s3.201-2.432,5.443-2.432c1.266,0,2.396,0.248,3.393,0.744s1.76,1.111,2.291,1.846V136.818z"/>
	<path d="M25.699,148.536c-0.094-0.43-0.16-0.801-0.199-1.113s-0.059-0.629-0.059-0.949c-0.469,0.664-1.094,1.215-1.875,1.652
		s-1.66,0.656-2.637,0.656c-1.242,0-2.203-0.32-2.883-0.961s-1.02-1.508-1.02-2.602c0-1.172,0.504-2.102,1.512-2.789
		s2.375-1.031,4.102-1.031h2.801v-1.676c0-0.906-0.291-1.617-0.873-2.133s-1.396-0.773-2.443-0.773
		c-0.703,0-1.346,0.096-1.928,0.287s-1.068,0.451-1.459,0.779l-0.117,1.699h-1.16l0.012-2.438c0.586-0.453,1.287-0.82,2.104-1.102
		s1.686-0.422,2.607-0.422c1.398,0,2.523,0.355,3.375,1.066s1.277,1.73,1.277,3.059v6.234c0,0.258,0.006,0.506,0.018,0.744
		s0.037,0.471,0.076,0.697l1.266,0.082v1.031H25.699z M21.082,147.54c1.016,0,1.91-0.234,2.684-0.703s1.332-1.074,1.676-1.816
		v-2.543h-2.824c-1.273,0-2.291,0.264-3.053,0.791s-1.143,1.193-1.143,1.998c0,0.68,0.236,1.229,0.709,1.646
		S20.254,147.54,21.082,147.54z"/>
	<path d="M29.906,131.298v-1.043h3.305v17.098l1.91,0.152v1.031h-5.215v-1.031l1.91-0.152V131.45L29.906,131.298z"/>
	<path d="M37.242,147.505l1.91-0.152v-10.301l-1.91-0.152v-1.043h3.305v11.496l1.91,0.152v1.031h-5.215V147.505z M40.547,132.224
		h-1.395v-1.969h1.395V132.224z"/>
	<path d="M44.613,137.005v-1.148h2.098v-1.852c0-1.273,0.32-2.258,0.961-2.953s1.535-1.043,2.684-1.043
		c0.25,0,0.508,0.02,0.773,0.059s0.535,0.094,0.809,0.164l-0.176,1.16c-0.188-0.047-0.379-0.084-0.574-0.111
		s-0.426-0.041-0.691-0.041c-0.766,0-1.354,0.242-1.764,0.727s-0.615,1.164-0.615,2.039v1.852h3.023v1.148h-3.023v10.348l1.91,0.152
		v1.031h-5.227v-1.031l1.91-0.152v-10.348H44.613z"/>
	<path d="M53.309,142.009c0-1.867,0.512-3.398,1.535-4.594s2.379-1.793,4.066-1.793c1.695,0,3.055,0.598,4.078,1.793
		s1.535,2.727,1.535,4.594v0.387c0,1.875-0.51,3.408-1.529,4.6s-2.373,1.787-4.061,1.787c-1.703,0-3.066-0.596-4.09-1.787
		s-1.535-2.725-1.535-4.6V142.009z M54.715,142.396c0,1.469,0.371,2.703,1.113,3.703s1.777,1.5,3.105,1.5
		c1.305,0,2.328-0.5,3.07-1.5s1.113-2.234,1.113-3.703v-0.387c0-1.445-0.373-2.672-1.119-3.68s-1.775-1.512-3.088-1.512
		s-2.34,0.504-3.082,1.512s-1.113,2.234-1.113,3.68V142.396z"/>
	<path d="M69.844,135.857l0.176,2.109v0.152c0.359-0.781,0.85-1.393,1.471-1.834s1.357-0.662,2.209-0.662
		c0.18,0,0.354,0.014,0.521,0.041s0.307,0.057,0.416,0.088l-0.188,1.312l-1.043-0.07c-0.883,0-1.607,0.248-2.174,0.744
		s-0.971,1.178-1.213,2.045v7.57l1.91,0.152v1.031h-5.215v-1.031l1.91-0.152v-10.301l-1.91-0.152v-1.043h1.91H69.844z"/>
	<path d="M76.195,147.505l1.91-0.152v-10.301l-1.91-0.152v-1.043h3.152l0.129,2.215c0.406-0.781,0.955-1.385,1.646-1.811
		s1.51-0.639,2.455-0.639c1.375,0,2.422,0.42,3.141,1.26s1.078,2.15,1.078,3.932v6.539l1.91,0.152v1.031H84.48v-1.031l1.91-0.152
		v-6.527c0-1.453-0.271-2.48-0.814-3.082s-1.314-0.902-2.314-0.902c-0.984,0-1.787,0.26-2.408,0.779s-1.068,1.209-1.342,2.068v7.664
		l1.91,0.152v1.031h-5.227V147.505z"/>
	<path d="M91.816,147.505l1.91-0.152v-10.301l-1.91-0.152v-1.043h3.305v11.496l1.91,0.152v1.031h-5.215V147.505z M95.121,132.224
		h-1.395v-1.969h1.395V132.224z"/>
	<path d="M108.141,148.536c-0.094-0.43-0.16-0.801-0.199-1.113s-0.059-0.629-0.059-0.949c-0.469,0.664-1.094,1.215-1.875,1.652
		s-1.66,0.656-2.637,0.656c-1.242,0-2.203-0.32-2.883-0.961s-1.02-1.508-1.02-2.602c0-1.172,0.504-2.102,1.512-2.789
		s2.375-1.031,4.102-1.031h2.801v-1.676c0-0.906-0.291-1.617-0.873-2.133s-1.396-0.773-2.443-0.773
		c-0.703,0-1.346,0.096-1.928,0.287s-1.068,0.451-1.459,0.779l-0.117,1.699h-1.16l0.012-2.438c0.586-0.453,1.287-0.82,2.104-1.102
		s1.686-0.422,2.607-0.422c1.398,0,2.523,0.355,3.375,1.066s1.277,1.73,1.277,3.059v6.234c0,0.258,0.006,0.506,0.018,0.744
		s0.037,0.471,0.076,0.697l1.266,0.082v1.031H108.141z M103.523,147.54c1.016,0,1.91-0.234,2.684-0.703s1.332-1.074,1.676-1.816
		v-2.543h-2.824c-1.273,0-2.291,0.264-3.053,0.791s-1.143,1.193-1.143,1.998c0,0.68,0.236,1.229,0.709,1.646
		S102.695,147.54,103.523,147.54z"/>
</g>
<g id="CA">
	<path fill="#D3D3D3" d="M98.408,114.426l2.104-0.761l0.565-1.291l-0.068-1.684l-2.025,0.12l-0.366-0.303l0.008-1.176l-0.161-0.304
		l0.979-0.581l1.318-1.937l-0.305-2.817l0.333-2.042l0.797-1.433l1.735-1.314l0.708-1.089l-0.226-1.167l-0.618-0.194l-0.696-0.462
		l-1.366-3.069l-2.079-2.318l-0.127-1.997l-1.458-0.263L46.481,39.742l1.931-39.507L9.591,0L9.355,2.789l0.841,4.106L8.83,14.026
		l-1.364,1.806L7.43,16.494L6.554,17.16L6.28,19.651l-0.04,1.877l2.036,1.966l1.414,2.107l1.067,1.813l0.631,3.593l-0.593,1.91
		l0.372,3.279L11.1,38.36l1.462,1.909l2.076,2.143l1.85,2.382l1.216,2.059l0.227,1.817l-0.117,0.307l0.263,1.155l3.897,2.757
		l0.037,1.393l-0.072,1.324l-0.113,1.147l1.12,4.51l1.62,1.78l1.389,1.179l1.571-0.077l0.877,1.389l-0.177,2.096l-0.953,1.151
		l-0.622,0.142l0.041,2.233l0.63,1.538l2.322,1.994l1.556,2.729l1.386,2.394l1.095,1.526l2.593,2.773l1.123,1.239l0.63,1.538
		l1.01,0.331l0.303,1.332l-0.201,1.167l-0.087,4.131l-0.024,1.127l1.676,1.207l2.37-0.259l2.709,0.411l2.395,0.67l1.599-0.364
		l1.983,1.324l2.028,2.341l0.905,1.102l2.395,0.67l2.766-0.163l1.062,0.973l0.76,1.695l-0.719,0.537l0.299,0.493l1.877,0.04
		l1.53-0.255l1.525-1.322l2.658,1.824l0.727,1.142l1.947,1.986l0.582,1.736l1.173,5.152l0.489,0.916l5.689-0.454l11.18-0.957
		L98.408,114.426L98.408,114.426z M44.515,101.429l0.903,0.682l0.073,0.731l-1.786,0.36l-0.463-0.595l-0.537-0.719L44.515,101.429
		L44.515,101.429z M45.581,101.187l0.585-0.507l2.217,0.71l1.839,0.282l-0.408,0.467l-2.518,0.433l-1.091-0.686L45.581,101.187
		L45.581,101.187z M59.427,109.48l1.27,1.066l0.565,0.432l0.915,0.119l0.129-0.87l-0.755-0.856l-1.718-0.777l-0.557,0.22
		L59.427,109.48z M59.71,114.414l1.371,1.509l0.909,0.914l-0.769,0.315l-0.862-0.504c0,0-0.581-0.709-0.632-0.93
		c-0.051-0.222-0.273-1.199-0.273-1.199L59.71,114.414L59.71,114.414z"/>
</g>
<g>
</g>
<g>
</g>
<g>
</g>
<g>
</g>
<g>
</g>
<g>
</g>
<g>
</g>
<g>
</g>
<g>
</g>
<g>
</g>
<g>
</g>
<g>
</g>
<g>
</g>
<g>
</g>
<g>
</g>
</svg>
